<svg width="19" height="21" viewBox="0 0 19 21" fill="none" xmlns="http://www.w3.org/2000/svg">
<path d="M18.1484 14.6797C18.3828 14.9141 18.5 15.2266 18.5 15.5C18.4609 16.1641 17.9922 16.75 17.2109 16.75H2.25C1.46875 16.75 1 16.1641 1 15.5C0.960938 15.2266 1.07812 14.9141 1.3125 14.6797C2.05469 13.8594 3.5 12.6484 3.5 8.625C3.5 5.61719 5.60938 3.19531 8.5 2.57031V1.75C8.5 1.08594 9.04688 0.5 9.75 0.5C10.4141 0.5 10.9609 1.08594 10.9609 1.75V2.57031C13.8516 3.19531 15.9609 5.61719 15.9609 8.625C15.9609 12.6484 17.4062 13.8594 18.1484 14.6797ZM3.61719 14.875H15.8438C15.0234 13.8203 14.125 11.9844 14.0859 8.66406C14.0859 8.66406 14.125 8.66406 14.125 8.625C14.125 6.24219 12.1328 4.25 9.75 4.25C7.32812 4.25 5.375 6.24219 5.375 8.625C5.375 8.66406 5.375 8.66406 5.375 8.66406C5.33594 11.9844 4.4375 13.8203 3.61719 14.875ZM9.75 20.5C8.34375 20.5 7.25 19.4062 7.25 18H12.2109C12.2109 19.4062 11.1172 20.5 9.75 20.5Z" fill="white"/>
</svg>
