<svg width="19" height="21" viewBox="0 0 19 21" fill="none" xmlns="http://www.w3.org/2000/svg">
<path d="M12.8449 12.375C15.7355 12.375 18.1183 14.7578 18.1183 17.6484V18.625C18.1183 19.6797 17.259 20.5 16.2433 20.5H2.49334C1.43865 20.5 0.618337 19.6797 0.618337 18.625V17.6484C0.618337 14.7578 2.96209 12.375 5.85271 12.375C6.98552 12.375 7.49334 13 9.36834 13C11.2043 13 11.7121 12.375 12.8449 12.375ZM16.2433 18.625V17.6484C16.2433 15.7734 14.7199 14.25 12.8449 14.25C12.259 14.25 11.3605 14.875 9.36834 14.875C7.33709 14.875 6.43865 14.25 5.85271 14.25C3.97771 14.25 2.49334 15.7734 2.49334 17.6484V18.625H16.2433ZM9.36834 11.75C6.24334 11.75 3.74334 9.25 3.74334 6.125C3.74334 3.03906 6.24334 0.5 9.36834 0.5C12.4543 0.5 14.9933 3.03906 14.9933 6.125C14.9933 9.25 12.4543 11.75 9.36834 11.75ZM9.36834 2.375C7.29802 2.375 5.61834 4.09375 5.61834 6.125C5.61834 8.19531 7.29802 9.875 9.36834 9.875C11.3996 9.875 13.1183 8.19531 13.1183 6.125C13.1183 4.09375 11.3996 2.375 9.36834 2.375Z" fill="white"/>
</svg>
