<svg width="19" height="19" viewBox="0 0 19 19" fill="none" xmlns="http://www.w3.org/2000/svg">
<path d="M11.0391 16.9219L10.1797 17.7812C9.78906 18.1328 9.20312 18.1328 8.85156 17.7812L1.27344 10.1641C0.882812 9.8125 0.882812 9.22656 1.27344 8.875L8.85156 1.25781C9.20312 0.90625 9.82812 0.90625 10.1797 1.25781L11.0391 2.11719C11.4297 2.50781 11.3906 3.09375 11.0391 3.48438L6.3125 7.9375H17.5625C18.0703 7.9375 18.5 8.36719 18.5 8.875V10.125C18.5 10.6719 18.0703 11.0625 17.5625 11.0625H6.3125L11.0391 15.5547C11.3906 15.9453 11.4297 16.5312 11.0391 16.9219Z" fill="white"/>
</svg>
