<svg width="19" height="17" viewBox="0 0 19 17" fill="none" xmlns="http://www.w3.org/2000/svg">
<path d="M1.50701 3.65625C1.15545 3.65625 0.882009 3.38281 0.882009 3.03125V1.46875C0.882009 1.15625 1.15545 0.84375 1.50701 0.84375H17.757C18.0695 0.84375 18.382 1.15625 18.382 1.46875V3.03125C18.382 3.38281 18.0695 3.65625 17.757 3.65625H1.50701ZM1.50701 9.90625C1.15545 9.90625 0.882009 9.63281 0.882009 9.28125V7.71875C0.882009 7.40625 1.15545 7.09375 1.50701 7.09375H17.757C18.0695 7.09375 18.382 7.40625 18.382 7.71875V9.28125C18.382 9.63281 18.0695 9.90625 17.757 9.90625H1.50701ZM1.50701 16.1562C1.15545 16.1562 0.882009 15.8828 0.882009 15.5312V13.9688C0.882009 13.6562 1.15545 13.3438 1.50701 13.3438H17.757C18.0695 13.3438 18.382 13.6562 18.382 13.9688V15.5312C18.382 15.8828 18.0695 16.1562 17.757 16.1562H1.50701Z" fill="white"/>
</svg>
