<svg width="44" height="45" viewBox="0 0 44 45" fill="none" xmlns="http://www.w3.org/2000/svg">
<rect y="0.644775" width="44" height="44" rx="22" fill="#FF5733"/>
<path d="M27.5556 28.2003L32 32.6448M12 21.5337C12 23.8911 12.9365 26.1521 14.6035 27.8191C16.2705 29.486 18.5314 30.4226 20.8889 30.4226C23.2464 30.4226 25.5073 29.486 27.1743 27.8191C28.8413 26.1521 29.7778 23.8911 29.7778 21.5337C29.7778 19.1762 28.8413 16.9153 27.1743 15.2483C25.5073 13.5813 23.2464 12.6448 20.8889 12.6448C18.5314 12.6448 16.2705 13.5813 14.6035 15.2483C12.9365 16.9153 12 19.1762 12 21.5337Z" stroke="white" stroke-width="1.5" stroke-linecap="round" stroke-linejoin="round"/>
</svg>
