<svg width="132" height="18" viewBox="0 0 132 18" fill="none" xmlns="http://www.w3.org/2000/svg">
<path d="M5.811 15.479C5.03967 15.479 4.37667 15.3143 3.822 14.985C3.26733 14.647 2.84267 14.1963 2.548 13.633C2.25333 13.0697 2.106 12.45 2.106 11.774C2.106 11.0893 2.25333 10.4697 2.548 9.915C2.84267 9.35167 3.26733 8.90533 3.822 8.576C4.37667 8.238 5.03967 8.069 5.811 8.069C6.37433 8.069 6.88133 8.16433 7.332 8.355C7.78267 8.537 8.164 8.79267 8.476 9.122L8.203 9.395C7.917 9.109 7.57467 8.88367 7.176 8.719C6.77733 8.55433 6.32233 8.472 5.811 8.472C5.11767 8.472 4.51967 8.62367 4.017 8.927C3.523 9.22167 3.146 9.62033 2.886 10.123C2.626 10.617 2.496 11.1673 2.496 11.774C2.496 12.3807 2.626 12.9353 2.886 13.438C3.146 13.932 3.523 14.3307 4.017 14.634C4.51967 14.9287 5.11767 15.076 5.811 15.076C6.32233 15.076 6.77733 14.9937 7.176 14.829C7.57467 14.6643 7.917 14.439 8.203 14.153L8.476 14.426C8.164 14.7467 7.78267 15.0023 7.332 15.193C6.88133 15.3837 6.37433 15.479 5.811 15.479ZM5.811 16.337C5.11767 16.337 4.48933 16.22 3.926 15.986C3.37133 15.7433 2.89033 15.414 2.483 14.998C2.08433 14.582 1.77667 14.101 1.56 13.555C1.352 13.0003 1.248 12.4067 1.248 11.774C1.248 11.1413 1.352 10.552 1.56 10.006C1.77667 9.45133 2.08433 8.966 2.483 8.55C2.89033 8.12533 3.37133 7.796 3.926 7.562C4.48933 7.328 5.11767 7.211 5.811 7.211C6.49567 7.211 7.111 7.328 7.657 7.562C8.21167 7.78733 8.68833 8.10367 9.087 8.511L8.801 8.797C8.44567 8.42433 8.01233 8.134 7.501 7.926C6.99833 7.718 6.435 7.614 5.811 7.614C4.96167 7.614 4.22067 7.80033 3.588 8.173C2.964 8.54567 2.483 9.04833 2.145 9.681C1.807 10.305 1.638 11.0027 1.638 11.774C1.638 12.5367 1.807 13.2343 2.145 13.867C2.483 14.4997 2.964 15.0023 3.588 15.375C4.22067 15.7477 4.96167 15.934 5.811 15.934C6.435 15.934 6.99833 15.83 7.501 15.622C8.01233 15.414 8.44567 15.1237 8.801 14.751L9.087 15.037C8.68833 15.4357 8.21167 15.752 7.657 15.986C7.111 16.22 6.49567 16.337 5.811 16.337ZM5.811 17.195C4.99633 17.195 4.25533 17.0563 3.588 16.779C2.92933 16.493 2.36167 16.103 1.885 15.609C1.40833 15.115 1.04 14.543 0.78 13.893C0.52 13.2343 0.39 12.528 0.39 11.774C0.39 11.02 0.52 10.318 0.78 9.668C1.04 9.00933 1.40833 8.433 1.885 7.939C2.36167 7.445 2.92933 7.05933 3.588 6.782C4.25533 6.496 4.99633 6.353 5.811 6.353C6.60833 6.353 7.33633 6.49167 7.995 6.769C8.65367 7.03767 9.22133 7.41467 9.698 7.9L9.425 8.173C8.983 7.731 8.45433 7.38433 7.839 7.133C7.23233 6.873 6.55633 6.743 5.811 6.743C5.04833 6.743 4.35933 6.873 3.744 7.133C3.12867 7.393 2.6 7.75267 2.158 8.212C1.716 8.67133 1.37367 9.20867 1.131 9.824C0.897 10.4307 0.78 11.0807 0.78 11.774C0.78 12.4673 0.897 13.1217 1.131 13.737C1.37367 14.3437 1.716 14.8767 2.158 15.336C2.6 15.7953 3.12867 16.155 3.744 16.415C4.35933 16.675 5.04833 16.805 5.811 16.805C6.55633 16.805 7.23233 16.6793 7.839 16.428C8.45433 16.168 8.983 15.817 9.425 15.375L9.698 15.648C9.22133 16.1247 8.65367 16.5017 7.995 16.779C7.33633 17.0563 6.60833 17.195 5.811 17.195ZM12.4588 17V6.548H12.8488V17H12.4588ZM10.7428 17V6.548H11.1328V17H10.7428ZM11.6008 17V6.548H11.9908V17H11.6008ZM22.8031 17V6.548H23.1931V17H22.8031ZM21.0871 17V6.548H21.4771V17H21.0871ZM21.9451 17V6.548H22.3351V17H21.9451ZM15.8611 17V6.548H16.2511V17H15.8611ZM14.1451 17V6.548H14.5351V17H14.1451ZM15.0031 17V6.548H15.3931V17H15.0031ZM20.6191 13.399L16.7191 7.796V7.107L20.6191 12.71V13.399ZM20.6191 14.907L16.7191 9.304V8.615L20.6191 14.218V14.907ZM20.6191 16.415L16.7191 10.812V10.123L20.6191 15.726V16.415ZM26.2078 17V6.548H26.5978V17H26.2078ZM24.4918 17V6.548H24.8818V17H24.4918ZM25.3498 17V6.548H25.7398V17H25.3498ZM27.0658 6.938V6.548H32.2528V6.938H27.0658ZM27.0658 7.796V7.406H32.2528V7.796H27.0658ZM27.0658 8.654V8.264H32.2528V8.654H27.0658ZM27.0658 11.111V10.721H31.5118V11.111H27.0658ZM27.0658 11.969V11.579H31.5118V11.969H27.0658ZM27.0658 12.827V12.437H31.5118V12.827H27.0658ZM27.0658 15.284V14.894H32.2528V15.284H27.0658ZM27.0658 16.142V15.752H32.2528V16.142H27.0658ZM27.0658 17V16.61H32.2528V17H27.0658ZM35.0056 17V6.548H35.3956V17H35.0056ZM33.2896 17V6.548H33.6796V17H33.2896ZM34.1476 17V6.548H34.5376V17H34.1476ZM43.4166 17V6.548H43.8066V17H43.4166ZM41.7006 17V6.548H42.0906V17H41.7006ZM42.5586 17V6.548H42.9486V17H42.5586ZM39.0356 10.968L38.8016 10.617L41.2326 7.094V7.783L39.0356 10.968ZM39.5556 13.217L35.8636 7.939V7.276L39.8026 12.879L39.5556 13.217ZM39.5686 11.722L39.3346 11.371L41.2326 8.667V9.343L39.5686 11.722ZM39.0356 13.984L35.8636 9.46V8.771L39.2696 13.633L39.0356 13.984ZM40.0886 12.463L39.8546 12.125L41.2326 10.162V10.838L40.0886 12.463ZM38.5156 14.725L35.8636 10.955V10.266L38.7496 14.387L38.5156 14.725ZM46.539 17L50.322 6.548H50.738L46.955 17H46.539ZM44.719 17L48.502 6.548H48.905L45.135 17H44.719ZM45.629 17L49.399 6.548H49.828L46.045 17H45.629ZM54.157 17L50.764 7.627L50.972 7.042L54.573 17H54.157ZM53.247 17L50.322 8.901L50.517 8.303L53.663 17H53.247ZM52.337 17L49.867 10.162L50.075 9.577L52.753 17H52.337ZM48.658 13.542L48.801 13.152H50.517L50.66 13.542H48.658ZM48.346 14.413L48.489 14.023H50.829L50.972 14.413H48.346ZM48.034 15.271L48.177 14.881H51.141L51.284 15.271H48.034ZM53.6661 6.938V6.548H61.7391V6.938H53.6661ZM53.6661 7.796V7.406H61.7391V7.796H53.6661ZM53.6661 8.654V8.264H61.7391V8.654H53.6661ZM58.3721 17V9.07H58.7621V17H58.3721ZM56.6561 17V9.07H57.0461V17H56.6561ZM57.5141 17V9.07H57.9041V17H57.5141ZM64.2303 17V6.548H64.6203V17H64.2303ZM62.5143 17V6.548H62.9043V17H62.5143ZM63.3723 17V6.548H63.7623V17H63.3723ZM65.0883 6.938V6.548H70.2753V6.938H65.0883ZM65.0883 7.796V7.406H70.2753V7.796H65.0883ZM65.0883 8.654V8.264H70.2753V8.654H65.0883ZM65.0883 11.111V10.721H69.5343V11.111H65.0883ZM65.0883 11.969V11.579H69.5343V11.969H65.0883ZM65.0883 12.827V12.437H69.5343V12.827H65.0883ZM65.0883 15.284V14.894H70.2753V15.284H65.0883ZM65.0883 16.142V15.752H70.2753V16.142H65.0883ZM65.0883 17V16.61H70.2753V17H65.0883ZM76.2192 15.479C75.4479 15.479 74.7849 15.3143 74.2302 14.985C73.6755 14.647 73.2509 14.1963 72.9562 13.633C72.6615 13.0697 72.5142 12.45 72.5142 11.774C72.5142 11.0893 72.6615 10.4697 72.9562 9.915C73.2509 9.35167 73.6755 8.90533 74.2302 8.576C74.7849 8.238 75.4479 8.069 76.2192 8.069C76.7825 8.069 77.2895 8.16433 77.7402 8.355C78.1909 8.537 78.5722 8.79267 78.8842 9.122L78.6112 9.395C78.3252 9.109 77.9829 8.88367 77.5842 8.719C77.1855 8.55433 76.7305 8.472 76.2192 8.472C75.5259 8.472 74.9279 8.62367 74.4252 8.927C73.9312 9.22167 73.5542 9.62033 73.2942 10.123C73.0342 10.617 72.9042 11.1673 72.9042 11.774C72.9042 12.3807 73.0342 12.9353 73.2942 13.438C73.5542 13.932 73.9312 14.3307 74.4252 14.634C74.9279 14.9287 75.5259 15.076 76.2192 15.076C76.7305 15.076 77.1855 14.9937 77.5842 14.829C77.9829 14.6643 78.3252 14.439 78.6112 14.153L78.8842 14.426C78.5722 14.7467 78.1909 15.0023 77.7402 15.193C77.2895 15.3837 76.7825 15.479 76.2192 15.479ZM76.2192 16.337C75.5259 16.337 74.8975 16.22 74.3342 15.986C73.7795 15.7433 73.2985 15.414 72.8912 14.998C72.4925 14.582 72.1849 14.101 71.9682 13.555C71.7602 13.0003 71.6562 12.4067 71.6562 11.774C71.6562 11.1413 71.7602 10.552 71.9682 10.006C72.1849 9.45133 72.4925 8.966 72.8912 8.55C73.2985 8.12533 73.7795 7.796 74.3342 7.562C74.8975 7.328 75.5259 7.211 76.2192 7.211C76.9039 7.211 77.5192 7.328 78.0652 7.562C78.6199 7.78733 79.0965 8.10367 79.4952 8.511L79.2092 8.797C78.8539 8.42433 78.4205 8.134 77.9092 7.926C77.4065 7.718 76.8432 7.614 76.2192 7.614C75.3699 7.614 74.6289 7.80033 73.9962 8.173C73.3722 8.54567 72.8912 9.04833 72.5532 9.681C72.2152 10.305 72.0462 11.0027 72.0462 11.774C72.0462 12.5367 72.2152 13.2343 72.5532 13.867C72.8912 14.4997 73.3722 15.0023 73.9962 15.375C74.6289 15.7477 75.3699 15.934 76.2192 15.934C76.8432 15.934 77.4065 15.83 77.9092 15.622C78.4205 15.414 78.8539 15.1237 79.2092 14.751L79.4952 15.037C79.0965 15.4357 78.6199 15.752 78.0652 15.986C77.5192 16.22 76.9039 16.337 76.2192 16.337ZM76.2192 17.195C75.4045 17.195 74.6635 17.0563 73.9962 16.779C73.3375 16.493 72.7699 16.103 72.2932 15.609C71.8165 15.115 71.4482 14.543 71.1882 13.893C70.9282 13.2343 70.7982 12.528 70.7982 11.774C70.7982 11.02 70.9282 10.318 71.1882 9.668C71.4482 9.00933 71.8165 8.433 72.2932 7.939C72.7699 7.445 73.3375 7.05933 73.9962 6.782C74.6635 6.496 75.4045 6.353 76.2192 6.353C77.0165 6.353 77.7445 6.49167 78.4032 6.769C79.0619 7.03767 79.6295 7.41467 80.1062 7.9L79.8332 8.173C79.3912 7.731 78.8625 7.38433 78.2472 7.133C77.6405 6.873 76.9645 6.743 76.2192 6.743C75.4565 6.743 74.7675 6.873 74.1522 7.133C73.5369 7.393 73.0082 7.75267 72.5662 8.212C72.1242 8.67133 71.7819 9.20867 71.5392 9.824C71.3052 10.4307 71.1882 11.0807 71.1882 11.774C71.1882 12.4673 71.3052 13.1217 71.5392 13.737C71.7819 14.3437 72.1242 14.8767 72.5662 15.336C73.0082 15.7953 73.5369 16.155 74.1522 16.415C74.7675 16.675 75.4565 16.805 76.2192 16.805C76.9645 16.805 77.6405 16.6793 78.2472 16.428C78.8625 16.168 79.3912 15.817 79.8332 15.375L80.1062 15.648C79.6295 16.1247 79.0619 16.5017 78.4032 16.779C77.7445 17.0563 77.0165 17.195 76.2192 17.195ZM82.581 17L86.364 6.548H86.78L82.997 17H82.581ZM80.761 17L84.544 6.548H84.947L81.177 17H80.761ZM81.671 17L85.441 6.548H85.87L82.087 17H81.671ZM90.199 17L86.806 7.627L87.014 7.042L90.615 17H90.199ZM89.289 17L86.364 8.901L86.559 8.303L89.705 17H89.289ZM88.379 17L85.909 10.162L86.117 9.577L88.795 17H88.379ZM84.7 13.542L84.843 13.152H86.559L86.702 13.542H84.7ZM84.388 14.413L84.531 14.023H86.871L87.014 14.413H84.388ZM84.076 15.271L84.219 14.881H87.183L87.326 15.271H84.076Z" fill="white"/>
<path d="M5.811 15.479C5.03967 15.479 4.37667 15.3143 3.822 14.985C3.26733 14.647 2.84267 14.1963 2.548 13.633C2.25333 13.0697 2.106 12.45 2.106 11.774C2.106 11.0893 2.25333 10.4697 2.548 9.915C2.84267 9.35167 3.26733 8.90533 3.822 8.576C4.37667 8.238 5.03967 8.069 5.811 8.069C6.37433 8.069 6.88133 8.16433 7.332 8.355C7.78267 8.537 8.164 8.79267 8.476 9.122L8.203 9.395C7.917 9.109 7.57467 8.88367 7.176 8.719C6.77733 8.55433 6.32233 8.472 5.811 8.472C5.11767 8.472 4.51967 8.62367 4.017 8.927C3.523 9.22167 3.146 9.62033 2.886 10.123C2.626 10.617 2.496 11.1673 2.496 11.774C2.496 12.3807 2.626 12.9353 2.886 13.438C3.146 13.932 3.523 14.3307 4.017 14.634C4.51967 14.9287 5.11767 15.076 5.811 15.076C6.32233 15.076 6.77733 14.9937 7.176 14.829C7.57467 14.6643 7.917 14.439 8.203 14.153L8.476 14.426C8.164 14.7467 7.78267 15.0023 7.332 15.193C6.88133 15.3837 6.37433 15.479 5.811 15.479ZM5.811 16.337C5.11767 16.337 4.48933 16.22 3.926 15.986C3.37133 15.7433 2.89033 15.414 2.483 14.998C2.08433 14.582 1.77667 14.101 1.56 13.555C1.352 13.0003 1.248 12.4067 1.248 11.774C1.248 11.1413 1.352 10.552 1.56 10.006C1.77667 9.45133 2.08433 8.966 2.483 8.55C2.89033 8.12533 3.37133 7.796 3.926 7.562C4.48933 7.328 5.11767 7.211 5.811 7.211C6.49567 7.211 7.111 7.328 7.657 7.562C8.21167 7.78733 8.68833 8.10367 9.087 8.511L8.801 8.797C8.44567 8.42433 8.01233 8.134 7.501 7.926C6.99833 7.718 6.435 7.614 5.811 7.614C4.96167 7.614 4.22067 7.80033 3.588 8.173C2.964 8.54567 2.483 9.04833 2.145 9.681C1.807 10.305 1.638 11.0027 1.638 11.774C1.638 12.5367 1.807 13.2343 2.145 13.867C2.483 14.4997 2.964 15.0023 3.588 15.375C4.22067 15.7477 4.96167 15.934 5.811 15.934C6.435 15.934 6.99833 15.83 7.501 15.622C8.01233 15.414 8.44567 15.1237 8.801 14.751L9.087 15.037C8.68833 15.4357 8.21167 15.752 7.657 15.986C7.111 16.22 6.49567 16.337 5.811 16.337ZM5.811 17.195C4.99633 17.195 4.25533 17.0563 3.588 16.779C2.92933 16.493 2.36167 16.103 1.885 15.609C1.40833 15.115 1.04 14.543 0.78 13.893C0.52 13.2343 0.39 12.528 0.39 11.774C0.39 11.02 0.52 10.318 0.78 9.668C1.04 9.00933 1.40833 8.433 1.885 7.939C2.36167 7.445 2.92933 7.05933 3.588 6.782C4.25533 6.496 4.99633 6.353 5.811 6.353C6.60833 6.353 7.33633 6.49167 7.995 6.769C8.65367 7.03767 9.22133 7.41467 9.698 7.9L9.425 8.173C8.983 7.731 8.45433 7.38433 7.839 7.133C7.23233 6.873 6.55633 6.743 5.811 6.743C5.04833 6.743 4.35933 6.873 3.744 7.133C3.12867 7.393 2.6 7.75267 2.158 8.212C1.716 8.67133 1.37367 9.20867 1.131 9.824C0.897 10.4307 0.78 11.0807 0.78 11.774C0.78 12.4673 0.897 13.1217 1.131 13.737C1.37367 14.3437 1.716 14.8767 2.158 15.336C2.6 15.7953 3.12867 16.155 3.744 16.415C4.35933 16.675 5.04833 16.805 5.811 16.805C6.55633 16.805 7.23233 16.6793 7.839 16.428C8.45433 16.168 8.983 15.817 9.425 15.375L9.698 15.648C9.22133 16.1247 8.65367 16.5017 7.995 16.779C7.33633 17.0563 6.60833 17.195 5.811 17.195ZM12.4588 17V6.548H12.8488V17H12.4588ZM10.7428 17V6.548H11.1328V17H10.7428ZM11.6008 17V6.548H11.9908V17H11.6008ZM22.8031 17V6.548H23.1931V17H22.8031ZM21.0871 17V6.548H21.4771V17H21.0871ZM21.9451 17V6.548H22.3351V17H21.9451ZM15.8611 17V6.548H16.2511V17H15.8611ZM14.1451 17V6.548H14.5351V17H14.1451ZM15.0031 17V6.548H15.3931V17H15.0031ZM20.6191 13.399L16.7191 7.796V7.107L20.6191 12.71V13.399ZM20.6191 14.907L16.7191 9.304V8.615L20.6191 14.218V14.907ZM20.6191 16.415L16.7191 10.812V10.123L20.6191 15.726V16.415ZM26.2078 17V6.548H26.5978V17H26.2078ZM24.4918 17V6.548H24.8818V17H24.4918ZM25.3498 17V6.548H25.7398V17H25.3498ZM27.0658 6.938V6.548H32.2528V6.938H27.0658ZM27.0658 7.796V7.406H32.2528V7.796H27.0658ZM27.0658 8.654V8.264H32.2528V8.654H27.0658ZM27.0658 11.111V10.721H31.5118V11.111H27.0658ZM27.0658 11.969V11.579H31.5118V11.969H27.0658ZM27.0658 12.827V12.437H31.5118V12.827H27.0658ZM27.0658 15.284V14.894H32.2528V15.284H27.0658ZM27.0658 16.142V15.752H32.2528V16.142H27.0658ZM27.0658 17V16.61H32.2528V17H27.0658ZM35.0056 17V6.548H35.3956V17H35.0056ZM33.2896 17V6.548H33.6796V17H33.2896ZM34.1476 17V6.548H34.5376V17H34.1476ZM43.4166 17V6.548H43.8066V17H43.4166ZM41.7006 17V6.548H42.0906V17H41.7006ZM42.5586 17V6.548H42.9486V17H42.5586ZM39.0356 10.968L38.8016 10.617L41.2326 7.094V7.783L39.0356 10.968ZM39.5556 13.217L35.8636 7.939V7.276L39.8026 12.879L39.5556 13.217ZM39.5686 11.722L39.3346 11.371L41.2326 8.667V9.343L39.5686 11.722ZM39.0356 13.984L35.8636 9.46V8.771L39.2696 13.633L39.0356 13.984ZM40.0886 12.463L39.8546 12.125L41.2326 10.162V10.838L40.0886 12.463ZM38.5156 14.725L35.8636 10.955V10.266L38.7496 14.387L38.5156 14.725ZM46.539 17L50.322 6.548H50.738L46.955 17H46.539ZM44.719 17L48.502 6.548H48.905L45.135 17H44.719ZM45.629 17L49.399 6.548H49.828L46.045 17H45.629ZM54.157 17L50.764 7.627L50.972 7.042L54.573 17H54.157ZM53.247 17L50.322 8.901L50.517 8.303L53.663 17H53.247ZM52.337 17L49.867 10.162L50.075 9.577L52.753 17H52.337ZM48.658 13.542L48.801 13.152H50.517L50.66 13.542H48.658ZM48.346 14.413L48.489 14.023H50.829L50.972 14.413H48.346ZM48.034 15.271L48.177 14.881H51.141L51.284 15.271H48.034ZM53.6661 6.938V6.548H61.7391V6.938H53.6661ZM53.6661 7.796V7.406H61.7391V7.796H53.6661ZM53.6661 8.654V8.264H61.7391V8.654H53.6661ZM58.3721 17V9.07H58.7621V17H58.3721ZM56.6561 17V9.07H57.0461V17H56.6561ZM57.5141 17V9.07H57.9041V17H57.5141ZM64.2303 17V6.548H64.6203V17H64.2303ZM62.5143 17V6.548H62.9043V17H62.5143ZM63.3723 17V6.548H63.7623V17H63.3723ZM65.0883 6.938V6.548H70.2753V6.938H65.0883ZM65.0883 7.796V7.406H70.2753V7.796H65.0883ZM65.0883 8.654V8.264H70.2753V8.654H65.0883ZM65.0883 11.111V10.721H69.5343V11.111H65.0883ZM65.0883 11.969V11.579H69.5343V11.969H65.0883ZM65.0883 12.827V12.437H69.5343V12.827H65.0883ZM65.0883 15.284V14.894H70.2753V15.284H65.0883ZM65.0883 16.142V15.752H70.2753V16.142H65.0883ZM65.0883 17V16.61H70.2753V17H65.0883ZM76.2192 15.479C75.4479 15.479 74.7849 15.3143 74.2302 14.985C73.6755 14.647 73.2509 14.1963 72.9562 13.633C72.6615 13.0697 72.5142 12.45 72.5142 11.774C72.5142 11.0893 72.6615 10.4697 72.9562 9.915C73.2509 9.35167 73.6755 8.90533 74.2302 8.576C74.7849 8.238 75.4479 8.069 76.2192 8.069C76.7825 8.069 77.2895 8.16433 77.7402 8.355C78.1909 8.537 78.5722 8.79267 78.8842 9.122L78.6112 9.395C78.3252 9.109 77.9829 8.88367 77.5842 8.719C77.1855 8.55433 76.7305 8.472 76.2192 8.472C75.5259 8.472 74.9279 8.62367 74.4252 8.927C73.9312 9.22167 73.5542 9.62033 73.2942 10.123C73.0342 10.617 72.9042 11.1673 72.9042 11.774C72.9042 12.3807 73.0342 12.9353 73.2942 13.438C73.5542 13.932 73.9312 14.3307 74.4252 14.634C74.9279 14.9287 75.5259 15.076 76.2192 15.076C76.7305 15.076 77.1855 14.9937 77.5842 14.829C77.9829 14.6643 78.3252 14.439 78.6112 14.153L78.8842 14.426C78.5722 14.7467 78.1909 15.0023 77.7402 15.193C77.2895 15.3837 76.7825 15.479 76.2192 15.479ZM76.2192 16.337C75.5259 16.337 74.8975 16.22 74.3342 15.986C73.7795 15.7433 73.2985 15.414 72.8912 14.998C72.4925 14.582 72.1849 14.101 71.9682 13.555C71.7602 13.0003 71.6562 12.4067 71.6562 11.774C71.6562 11.1413 71.7602 10.552 71.9682 10.006C72.1849 9.45133 72.4925 8.966 72.8912 8.55C73.2985 8.12533 73.7795 7.796 74.3342 7.562C74.8975 7.328 75.5259 7.211 76.2192 7.211C76.9039 7.211 77.5192 7.328 78.0652 7.562C78.6199 7.78733 79.0965 8.10367 79.4952 8.511L79.2092 8.797C78.8539 8.42433 78.4205 8.134 77.9092 7.926C77.4065 7.718 76.8432 7.614 76.2192 7.614C75.3699 7.614 74.6289 7.80033 73.9962 8.173C73.3722 8.54567 72.8912 9.04833 72.5532 9.681C72.2152 10.305 72.0462 11.0027 72.0462 11.774C72.0462 12.5367 72.2152 13.2343 72.5532 13.867C72.8912 14.4997 73.3722 15.0023 73.9962 15.375C74.6289 15.7477 75.3699 15.934 76.2192 15.934C76.8432 15.934 77.4065 15.83 77.9092 15.622C78.4205 15.414 78.8539 15.1237 79.2092 14.751L79.4952 15.037C79.0965 15.4357 78.6199 15.752 78.0652 15.986C77.5192 16.22 76.9039 16.337 76.2192 16.337ZM76.2192 17.195C75.4045 17.195 74.6635 17.0563 73.9962 16.779C73.3375 16.493 72.7699 16.103 72.2932 15.609C71.8165 15.115 71.4482 14.543 71.1882 13.893C70.9282 13.2343 70.7982 12.528 70.7982 11.774C70.7982 11.02 70.9282 10.318 71.1882 9.668C71.4482 9.00933 71.8165 8.433 72.2932 7.939C72.7699 7.445 73.3375 7.05933 73.9962 6.782C74.6635 6.496 75.4045 6.353 76.2192 6.353C77.0165 6.353 77.7445 6.49167 78.4032 6.769C79.0619 7.03767 79.6295 7.41467 80.1062 7.9L79.8332 8.173C79.3912 7.731 78.8625 7.38433 78.2472 7.133C77.6405 6.873 76.9645 6.743 76.2192 6.743C75.4565 6.743 74.7675 6.873 74.1522 7.133C73.5369 7.393 73.0082 7.75267 72.5662 8.212C72.1242 8.67133 71.7819 9.20867 71.5392 9.824C71.3052 10.4307 71.1882 11.0807 71.1882 11.774C71.1882 12.4673 71.3052 13.1217 71.5392 13.737C71.7819 14.3437 72.1242 14.8767 72.5662 15.336C73.0082 15.7953 73.5369 16.155 74.1522 16.415C74.7675 16.675 75.4565 16.805 76.2192 16.805C76.9645 16.805 77.6405 16.6793 78.2472 16.428C78.8625 16.168 79.3912 15.817 79.8332 15.375L80.1062 15.648C79.6295 16.1247 79.0619 16.5017 78.4032 16.779C77.7445 17.0563 77.0165 17.195 76.2192 17.195ZM82.581 17L86.364 6.548H86.78L82.997 17H82.581ZM80.761 17L84.544 6.548H84.947L81.177 17H80.761ZM81.671 17L85.441 6.548H85.87L82.087 17H81.671ZM90.199 17L86.806 7.627L87.014 7.042L90.615 17H90.199ZM89.289 17L86.364 8.901L86.559 8.303L89.705 17H89.289ZM88.379 17L85.909 10.162L86.117 9.577L88.795 17H88.379ZM84.7 13.542L84.843 13.152H86.559L86.702 13.542H84.7ZM84.388 14.413L84.531 14.023H86.871L87.014 14.413H84.388ZM84.076 15.271L84.219 14.881H87.183L87.326 15.271H84.076Z" fill="#A66B05" fill-opacity="0.76"/>
<path d="M94.513 17V0.92H95.113V17H94.513ZM91.873 17V0.92H92.473V17H91.873ZM93.193 17V0.92H93.793V17H93.193ZM95.833 10.28V9.68H100.533C101.293 9.68 101.98 9.51333 102.593 9.18C103.22 8.84667 103.713 8.37333 104.073 7.76C104.446 7.14667 104.633 6.42667 104.633 5.6C104.633 4.77333 104.446 4.05333 104.073 3.44C103.713 2.82667 103.22 2.35333 102.593 2.02C101.98 1.68667 101.293 1.52 100.533 1.52H95.833V0.92H100.533C101.4 0.92 102.186 1.12 102.893 1.52C103.613 1.90667 104.18 2.45333 104.593 3.16C105.02 3.85333 105.233 4.66667 105.233 5.6C105.233 6.53333 105.02 7.35333 104.593 8.06C104.18 8.75333 103.613 9.3 102.893 9.7C102.186 10.0867 101.4 10.28 100.533 10.28H95.833ZM95.833 8.96V8.36H100.533C101.306 8.36 101.96 8.12 102.493 7.64C103.04 7.14667 103.313 6.46667 103.313 5.6C103.313 4.73333 103.04 4.06 102.493 3.58C101.96 3.08667 101.306 2.84 100.533 2.84H95.833V2.24H100.533C101.16 2.24 101.726 2.38 102.233 2.66C102.74 2.92667 103.146 3.31333 103.453 3.82C103.76 4.31333 103.913 4.90667 103.913 5.6C103.913 6.29333 103.76 6.89333 103.453 7.4C103.146 7.89333 102.74 8.28 102.233 8.56C101.726 8.82667 101.16 8.96 100.533 8.96H95.833ZM95.833 7.64V7.04H100.533C100.933 7.04 101.273 6.92667 101.553 6.7C101.846 6.46 101.993 6.09333 101.993 5.6C101.993 5.09333 101.846 4.72667 101.553 4.5C101.273 4.27333 100.933 4.16 100.533 4.16H95.833V3.56H100.533C101.106 3.56 101.593 3.73333 101.993 4.08C102.393 4.42667 102.593 4.93333 102.593 5.6C102.593 6.26667 102.393 6.77333 101.993 7.12C101.593 7.46667 101.106 7.64 100.533 7.64H95.833ZM108.102 17V6.548H108.492V17H108.102ZM106.386 17V6.548H106.776V17H106.386ZM107.244 17V6.548H107.634V17H107.244ZM108.96 15.284V14.894H113.406V15.284H108.96ZM108.96 16.142V15.752H113.406V16.142H108.96ZM108.96 17V16.61H113.406V17H108.96Z" fill="white"/>
<path d="M94.513 17V0.92H95.113V17H94.513ZM91.873 17V0.92H92.473V17H91.873ZM93.193 17V0.92H93.793V17H93.193ZM95.833 10.28V9.68H100.533C101.293 9.68 101.98 9.51333 102.593 9.18C103.22 8.84667 103.713 8.37333 104.073 7.76C104.446 7.14667 104.633 6.42667 104.633 5.6C104.633 4.77333 104.446 4.05333 104.073 3.44C103.713 2.82667 103.22 2.35333 102.593 2.02C101.98 1.68667 101.293 1.52 100.533 1.52H95.833V0.92H100.533C101.4 0.92 102.186 1.12 102.893 1.52C103.613 1.90667 104.18 2.45333 104.593 3.16C105.02 3.85333 105.233 4.66667 105.233 5.6C105.233 6.53333 105.02 7.35333 104.593 8.06C104.18 8.75333 103.613 9.3 102.893 9.7C102.186 10.0867 101.4 10.28 100.533 10.28H95.833ZM95.833 8.96V8.36H100.533C101.306 8.36 101.96 8.12 102.493 7.64C103.04 7.14667 103.313 6.46667 103.313 5.6C103.313 4.73333 103.04 4.06 102.493 3.58C101.96 3.08667 101.306 2.84 100.533 2.84H95.833V2.24H100.533C101.16 2.24 101.726 2.38 102.233 2.66C102.74 2.92667 103.146 3.31333 103.453 3.82C103.76 4.31333 103.913 4.90667 103.913 5.6C103.913 6.29333 103.76 6.89333 103.453 7.4C103.146 7.89333 102.74 8.28 102.233 8.56C101.726 8.82667 101.16 8.96 100.533 8.96H95.833ZM95.833 7.64V7.04H100.533C100.933 7.04 101.273 6.92667 101.553 6.7C101.846 6.46 101.993 6.09333 101.993 5.6C101.993 5.09333 101.846 4.72667 101.553 4.5C101.273 4.27333 100.933 4.16 100.533 4.16H95.833V3.56H100.533C101.106 3.56 101.593 3.73333 101.993 4.08C102.393 4.42667 102.593 4.93333 102.593 5.6C102.593 6.26667 102.393 6.77333 101.993 7.12C101.593 7.46667 101.106 7.64 100.533 7.64H95.833ZM108.102 17V6.548H108.492V17H108.102ZM106.386 17V6.548H106.776V17H106.386ZM107.244 17V6.548H107.634V17H107.244ZM108.96 15.284V14.894H113.406V15.284H108.96ZM108.96 16.142V15.752H113.406V16.142H108.96ZM108.96 17V16.61H113.406V17H108.96Z" fill="#FF0606" fill-opacity="0.6"/>
<path d="M115.662 17L119.445 6.548H119.861L116.078 17H115.662ZM113.842 17L117.625 6.548H118.028L114.258 17H113.842ZM114.752 17L118.522 6.548H118.951L115.168 17H114.752ZM123.28 17L119.887 7.627L120.095 7.042L123.696 17H123.28ZM122.37 17L119.445 8.901L119.64 8.303L122.786 17H122.37ZM121.46 17L118.99 10.162L119.198 9.577L121.876 17H121.46ZM117.781 13.542L117.924 13.152H119.64L119.783 13.542H117.781ZM117.469 14.413L117.612 14.023H119.952L120.095 14.413H117.469ZM117.157 15.271L117.3 14.881H120.264L120.407 15.271H117.157Z" fill="white"/>
<path d="M115.662 17L119.445 6.548H119.861L116.078 17H115.662ZM113.842 17L117.625 6.548H118.028L114.258 17H113.842ZM114.752 17L118.522 6.548H118.951L115.168 17H114.752ZM123.28 17L119.887 7.627L120.095 7.042L123.696 17H123.28ZM122.37 17L119.445 8.901L119.64 8.303L122.786 17H122.37ZM121.46 17L118.99 10.162L119.198 9.577L121.876 17H121.46ZM117.781 13.542L117.924 13.152H119.64L119.783 13.542H117.781ZM117.469 14.413L117.612 14.023H119.952L120.095 14.413H117.469ZM117.157 15.271L117.3 14.881H120.264L120.407 15.271H117.157Z" fill="#F5FE04" fill-opacity="0.75"/>
<path d="M127.797 12.073L124.196 6.548H124.664L128.278 12.073H127.797ZM125.743 12.073L122.142 6.548H122.61L126.211 12.073H125.743ZM126.783 12.073L123.169 6.548H123.637L127.238 12.073H126.783ZM127.511 10.032L127.264 9.668L129.344 6.548H129.812L127.511 10.032ZM128.031 10.838L127.797 10.461L130.371 6.548H130.839L128.031 10.838ZM128.551 11.631L128.304 11.267L131.398 6.548H131.866L128.551 11.631ZM127.667 17V12.554H128.057V17H127.667ZM125.951 17V12.554H126.341V17H125.951ZM126.809 17V12.554H127.199V17H126.809Z" fill="white"/>
<path d="M127.797 12.073L124.196 6.548H124.664L128.278 12.073H127.797ZM125.743 12.073L122.142 6.548H122.61L126.211 12.073H125.743ZM126.783 12.073L123.169 6.548H123.637L127.238 12.073H126.783ZM127.511 10.032L127.264 9.668L129.344 6.548H129.812L127.511 10.032ZM128.031 10.838L127.797 10.461L130.371 6.548H130.839L128.031 10.838ZM128.551 11.631L128.304 11.267L131.398 6.548H131.866L128.551 11.631ZM127.667 17V12.554H128.057V17H127.667ZM125.951 17V12.554H126.341V17H125.951ZM126.809 17V12.554H127.199V17H126.809Z" fill="#0CFF18" fill-opacity="0.55"/>
</svg>
