<svg width="91" height="25" viewBox="0 0 91 25" fill="none" xmlns="http://www.w3.org/2000/svg">
<path d="M5.99485 9.479C5.22352 9.479 4.56052 9.31433 4.00585 8.985C3.45118 8.647 3.02652 8.19633 2.73185 7.633C2.43718 7.06967 2.28985 6.45 2.28985 5.774C2.28985 5.08933 2.43718 4.46967 2.73185 3.915C3.02652 3.35167 3.45118 2.90533 4.00585 2.576C4.56052 2.238 5.22352 2.069 5.99485 2.069C6.55818 2.069 7.06518 2.16433 7.51585 2.355C7.96652 2.537 8.34785 2.79267 8.65985 3.122L8.38685 3.395C8.10085 3.109 7.75852 2.88367 7.35985 2.719C6.96118 2.55433 6.50618 2.472 5.99485 2.472C5.30152 2.472 4.70352 2.62367 4.20085 2.927C3.70685 3.22167 3.32985 3.62033 3.06985 4.123C2.80985 4.617 2.67985 5.16733 2.67985 5.774C2.67985 6.38067 2.80985 6.93533 3.06985 7.438C3.32985 7.932 3.70685 8.33067 4.20085 8.634C4.70352 8.92867 5.30152 9.076 5.99485 9.076C6.50618 9.076 6.96118 8.99367 7.35985 8.829C7.75852 8.66433 8.10085 8.439 8.38685 8.153L8.65985 8.426C8.34785 8.74667 7.96652 9.00233 7.51585 9.193C7.06518 9.38367 6.55818 9.479 5.99485 9.479ZM5.99485 10.337C5.30152 10.337 4.67318 10.22 4.10985 9.986C3.55518 9.74333 3.07418 9.414 2.66685 8.998C2.26818 8.582 1.96052 8.101 1.74385 7.555C1.53585 7.00033 1.43185 6.40667 1.43185 5.774C1.43185 5.14133 1.53585 4.552 1.74385 4.006C1.96052 3.45133 2.26818 2.966 2.66685 2.55C3.07418 2.12533 3.55518 1.796 4.10985 1.562C4.67318 1.328 5.30152 1.211 5.99485 1.211C6.67952 1.211 7.29485 1.328 7.84085 1.562C8.39552 1.78733 8.87218 2.10367 9.27085 2.511L8.98485 2.797C8.62952 2.42433 8.19618 2.134 7.68485 1.926C7.18218 1.718 6.61885 1.614 5.99485 1.614C5.14552 1.614 4.40452 1.80033 3.77185 2.173C3.14785 2.54567 2.66685 3.04833 2.32885 3.681C1.99085 4.305 1.82185 5.00267 1.82185 5.774C1.82185 6.53667 1.99085 7.23433 2.32885 7.867C2.66685 8.49967 3.14785 9.00233 3.77185 9.375C4.40452 9.74767 5.14552 9.934 5.99485 9.934C6.61885 9.934 7.18218 9.83 7.68485 9.622C8.19618 9.414 8.62952 9.12367 8.98485 8.751L9.27085 9.037C8.87218 9.43567 8.39552 9.752 7.84085 9.986C7.29485 10.22 6.67952 10.337 5.99485 10.337ZM5.99485 11.195C5.18018 11.195 4.43918 11.0563 3.77185 10.779C3.11318 10.493 2.54552 10.103 2.06885 9.609C1.59218 9.115 1.22385 8.543 0.963849 7.893C0.703849 7.23433 0.573849 6.528 0.573849 5.774C0.573849 5.02 0.703849 4.318 0.963849 3.668C1.22385 3.00933 1.59218 2.433 2.06885 1.939C2.54552 1.445 3.11318 1.05933 3.77185 0.782C4.43918 0.495999 5.18018 0.352999 5.99485 0.352999C6.79218 0.352999 7.52018 0.491666 8.17885 0.768999C8.83752 1.03767 9.40518 1.41467 9.88185 1.9L9.60885 2.173C9.16685 1.731 8.63818 1.38433 8.02285 1.133C7.41618 0.872999 6.74018 0.743 5.99485 0.743C5.23218 0.743 4.54318 0.872999 3.92785 1.133C3.31252 1.393 2.78385 1.75267 2.34185 2.212C1.89985 2.67133 1.55752 3.20867 1.31485 3.824C1.08085 4.43067 0.963849 5.08067 0.963849 5.774C0.963849 6.46733 1.08085 7.12167 1.31485 7.737C1.55752 8.34367 1.89985 8.87667 2.34185 9.336C2.78385 9.79533 3.31252 10.155 3.92785 10.415C4.54318 10.675 5.23218 10.805 5.99485 10.805C6.74018 10.805 7.41618 10.6793 8.02285 10.428C8.63818 10.168 9.16685 9.817 9.60885 9.375L9.88185 9.648C9.40518 10.1247 8.83752 10.5017 8.17885 10.779C7.52018 11.0563 6.79218 11.195 5.99485 11.195ZM12.6426 11V0.548H13.0326V11H12.6426ZM10.9266 11V0.548H11.3166V11H10.9266ZM11.7846 11V0.548H12.1746V11H11.7846ZM22.987 11V0.548H23.377V11H22.987ZM21.271 11V0.548H21.661V11H21.271ZM22.129 11V0.548H22.519V11H22.129ZM16.045 11V0.548H16.435V11H16.045ZM14.329 11V0.548H14.719V11H14.329ZM15.187 11V0.548H15.577V11H15.187ZM20.803 7.399L16.903 1.796V1.107L20.803 6.71V7.399ZM20.803 8.907L16.903 3.304V2.615L20.803 8.218V8.907ZM20.803 10.415L16.903 4.812V4.123L20.803 9.726V10.415ZM26.3916 11V0.548H26.7816V11H26.3916ZM24.6756 11V0.548H25.0656V11H24.6756ZM25.5336 11V0.548H25.9236V11H25.5336ZM27.2496 0.937999V0.548H32.4366V0.937999H27.2496ZM27.2496 1.796V1.406H32.4366V1.796H27.2496ZM27.2496 2.654V2.264H32.4366V2.654H27.2496ZM27.2496 5.111V4.721H31.6956V5.111H27.2496ZM27.2496 5.969V5.579H31.6956V5.969H27.2496ZM27.2496 6.827V6.437H31.6956V6.827H27.2496ZM27.2496 9.284V8.894H32.4366V9.284H27.2496ZM27.2496 10.142V9.752H32.4366V10.142H27.2496ZM27.2496 11V10.61H32.4366V11H27.2496ZM35.1895 11V0.548H35.5795V11H35.1895ZM33.4735 11V0.548H33.8635V11H33.4735ZM34.3315 11V0.548H34.7215V11H34.3315ZM43.6005 11V0.548H43.9905V11H43.6005ZM41.8845 11V0.548H42.2745V11H41.8845ZM42.7425 11V0.548H43.1325V11H42.7425ZM39.2195 4.968L38.9855 4.617L41.4165 1.094V1.783L39.2195 4.968ZM39.7395 7.217L36.0475 1.939V1.276L39.9865 6.879L39.7395 7.217ZM39.7525 5.722L39.5185 5.371L41.4165 2.667V3.343L39.7525 5.722ZM39.2195 7.984L36.0475 3.46V2.771L39.4535 7.633L39.2195 7.984ZM40.2725 6.463L40.0385 6.125L41.4165 4.162V4.838L40.2725 6.463ZM38.6995 8.725L36.0475 4.955V4.266L38.9335 8.387L38.6995 8.725ZM46.7228 11L50.5058 0.548H50.9218L47.1388 11H46.7228ZM44.9028 11L48.6858 0.548H49.0888L45.3188 11H44.9028ZM45.8128 11L49.5828 0.548H50.0118L46.2288 11H45.8128ZM54.3408 11L50.9478 1.627L51.1558 1.042L54.7568 11H54.3408ZM53.4308 11L50.5058 2.901L50.7008 2.303L53.8468 11H53.4308ZM52.5208 11L50.0508 4.162L50.2588 3.577L52.9368 11H52.5208ZM48.8418 7.542L48.9848 7.152H50.7008L50.8438 7.542H48.8418ZM48.5298 8.413L48.6728 8.023H51.0128L51.1558 8.413H48.5298ZM48.2178 9.271L48.3608 8.881H51.3248L51.4678 9.271H48.2178ZM53.85 0.937999V0.548H61.923V0.937999H53.85ZM53.85 1.796V1.406H61.923V1.796H53.85ZM53.85 2.654V2.264H61.923V2.654H53.85ZM58.556 11V3.07H58.946V11H58.556ZM56.84 11V3.07H57.23V11H56.84ZM57.698 11V3.07H58.088V11H57.698ZM64.4141 11V0.548H64.8041V11H64.4141ZM62.6981 11V0.548H63.0881V11H62.6981ZM63.5561 11V0.548H63.9461V11H63.5561ZM65.2721 0.937999V0.548H70.4591V0.937999H65.2721ZM65.2721 1.796V1.406H70.4591V1.796H65.2721ZM65.2721 2.654V2.264H70.4591V2.654H65.2721ZM65.2721 5.111V4.721H69.7181V5.111H65.2721ZM65.2721 5.969V5.579H69.7181V5.969H65.2721ZM65.2721 6.827V6.437H69.7181V6.827H65.2721ZM65.2721 9.284V8.894H70.4591V9.284H65.2721ZM65.2721 10.142V9.752H70.4591V10.142H65.2721ZM65.2721 11V10.61H70.4591V11H65.2721ZM76.4031 9.479C75.6317 9.479 74.9687 9.31433 74.4141 8.985C73.8594 8.647 73.4347 8.19633 73.1401 7.633C72.8454 7.06967 72.6981 6.45 72.6981 5.774C72.6981 5.08933 72.8454 4.46967 73.1401 3.915C73.4347 3.35167 73.8594 2.90533 74.4141 2.576C74.9687 2.238 75.6317 2.069 76.4031 2.069C76.9664 2.069 77.4734 2.16433 77.9241 2.355C78.3747 2.537 78.7561 2.79267 79.0681 3.122L78.7951 3.395C78.5091 3.109 78.1667 2.88367 77.7681 2.719C77.3694 2.55433 76.9144 2.472 76.4031 2.472C75.7097 2.472 75.1117 2.62367 74.6091 2.927C74.1151 3.22167 73.7381 3.62033 73.4781 4.123C73.2181 4.617 73.0881 5.16733 73.0881 5.774C73.0881 6.38067 73.2181 6.93533 73.4781 7.438C73.7381 7.932 74.1151 8.33067 74.6091 8.634C75.1117 8.92867 75.7097 9.076 76.4031 9.076C76.9144 9.076 77.3694 8.99367 77.7681 8.829C78.1667 8.66433 78.5091 8.439 78.7951 8.153L79.0681 8.426C78.7561 8.74667 78.3747 9.00233 77.9241 9.193C77.4734 9.38367 76.9664 9.479 76.4031 9.479ZM76.4031 10.337C75.7097 10.337 75.0814 10.22 74.5181 9.986C73.9634 9.74333 73.4824 9.414 73.0751 8.998C72.6764 8.582 72.3687 8.101 72.1521 7.555C71.9441 7.00033 71.8401 6.40667 71.8401 5.774C71.8401 5.14133 71.9441 4.552 72.1521 4.006C72.3687 3.45133 72.6764 2.966 73.0751 2.55C73.4824 2.12533 73.9634 1.796 74.5181 1.562C75.0814 1.328 75.7097 1.211 76.4031 1.211C77.0877 1.211 77.7031 1.328 78.2491 1.562C78.8037 1.78733 79.2804 2.10367 79.6791 2.511L79.3931 2.797C79.0377 2.42433 78.6044 2.134 78.0931 1.926C77.5904 1.718 77.0271 1.614 76.4031 1.614C75.5537 1.614 74.8127 1.80033 74.1801 2.173C73.5561 2.54567 73.0751 3.04833 72.7371 3.681C72.3991 4.305 72.2301 5.00267 72.2301 5.774C72.2301 6.53667 72.3991 7.23433 72.7371 7.867C73.0751 8.49967 73.5561 9.00233 74.1801 9.375C74.8127 9.74767 75.5537 9.934 76.4031 9.934C77.0271 9.934 77.5904 9.83 78.0931 9.622C78.6044 9.414 79.0377 9.12367 79.3931 8.751L79.6791 9.037C79.2804 9.43567 78.8037 9.752 78.2491 9.986C77.7031 10.22 77.0877 10.337 76.4031 10.337ZM76.4031 11.195C75.5884 11.195 74.8474 11.0563 74.1801 10.779C73.5214 10.493 72.9537 10.103 72.4771 9.609C72.0004 9.115 71.6321 8.543 71.3721 7.893C71.1121 7.23433 70.9821 6.528 70.9821 5.774C70.9821 5.02 71.1121 4.318 71.3721 3.668C71.6321 3.00933 72.0004 2.433 72.4771 1.939C72.9537 1.445 73.5214 1.05933 74.1801 0.782C74.8474 0.495999 75.5884 0.352999 76.4031 0.352999C77.2004 0.352999 77.9284 0.491666 78.5871 0.768999C79.2457 1.03767 79.8134 1.41467 80.2901 1.9L80.0171 2.173C79.5751 1.731 79.0464 1.38433 78.4311 1.133C77.8244 0.872999 77.1484 0.743 76.4031 0.743C75.6404 0.743 74.9514 0.872999 74.3361 1.133C73.7207 1.393 73.1921 1.75267 72.7501 2.212C72.3081 2.67133 71.9657 3.20867 71.7231 3.824C71.4891 4.43067 71.3721 5.08067 71.3721 5.774C71.3721 6.46733 71.4891 7.12167 71.7231 7.737C71.9657 8.34367 72.3081 8.87667 72.7501 9.336C73.1921 9.79533 73.7207 10.155 74.3361 10.415C74.9514 10.675 75.6404 10.805 76.4031 10.805C77.1484 10.805 77.8244 10.6793 78.4311 10.428C79.0464 10.168 79.5751 9.817 80.0171 9.375L80.2901 9.648C79.8134 10.1247 79.2457 10.5017 78.5871 10.779C77.9284 11.0563 77.2004 11.195 76.4031 11.195ZM82.7648 11L86.5478 0.548H86.9638L83.1808 11H82.7648ZM80.9448 11L84.7278 0.548H85.1308L81.3608 11H80.9448ZM81.8548 11L85.6248 0.548H86.0538L82.2708 11H81.8548ZM90.3828 11L86.9898 1.627L87.1978 1.042L90.7988 11H90.3828ZM89.4728 11L86.5478 2.901L86.7428 2.303L89.8888 11H89.4728ZM88.5628 11L86.0928 4.162L86.3008 3.577L88.9788 11H88.5628ZM84.8838 7.542L85.0268 7.152H86.7428L86.8858 7.542H84.8838ZM84.5718 8.413L84.7148 8.023H87.0548L87.1978 8.413H84.5718ZM84.2598 9.271L84.4028 8.881H87.3668L87.5098 9.271H84.2598Z" fill="white"/>
<path d="M5.99485 9.479C5.22352 9.479 4.56052 9.31433 4.00585 8.985C3.45118 8.647 3.02652 8.19633 2.73185 7.633C2.43718 7.06967 2.28985 6.45 2.28985 5.774C2.28985 5.08933 2.43718 4.46967 2.73185 3.915C3.02652 3.35167 3.45118 2.90533 4.00585 2.576C4.56052 2.238 5.22352 2.069 5.99485 2.069C6.55818 2.069 7.06518 2.16433 7.51585 2.355C7.96652 2.537 8.34785 2.79267 8.65985 3.122L8.38685 3.395C8.10085 3.109 7.75852 2.88367 7.35985 2.719C6.96118 2.55433 6.50618 2.472 5.99485 2.472C5.30152 2.472 4.70352 2.62367 4.20085 2.927C3.70685 3.22167 3.32985 3.62033 3.06985 4.123C2.80985 4.617 2.67985 5.16733 2.67985 5.774C2.67985 6.38067 2.80985 6.93533 3.06985 7.438C3.32985 7.932 3.70685 8.33067 4.20085 8.634C4.70352 8.92867 5.30152 9.076 5.99485 9.076C6.50618 9.076 6.96118 8.99367 7.35985 8.829C7.75852 8.66433 8.10085 8.439 8.38685 8.153L8.65985 8.426C8.34785 8.74667 7.96652 9.00233 7.51585 9.193C7.06518 9.38367 6.55818 9.479 5.99485 9.479ZM5.99485 10.337C5.30152 10.337 4.67318 10.22 4.10985 9.986C3.55518 9.74333 3.07418 9.414 2.66685 8.998C2.26818 8.582 1.96052 8.101 1.74385 7.555C1.53585 7.00033 1.43185 6.40667 1.43185 5.774C1.43185 5.14133 1.53585 4.552 1.74385 4.006C1.96052 3.45133 2.26818 2.966 2.66685 2.55C3.07418 2.12533 3.55518 1.796 4.10985 1.562C4.67318 1.328 5.30152 1.211 5.99485 1.211C6.67952 1.211 7.29485 1.328 7.84085 1.562C8.39552 1.78733 8.87218 2.10367 9.27085 2.511L8.98485 2.797C8.62952 2.42433 8.19618 2.134 7.68485 1.926C7.18218 1.718 6.61885 1.614 5.99485 1.614C5.14552 1.614 4.40452 1.80033 3.77185 2.173C3.14785 2.54567 2.66685 3.04833 2.32885 3.681C1.99085 4.305 1.82185 5.00267 1.82185 5.774C1.82185 6.53667 1.99085 7.23433 2.32885 7.867C2.66685 8.49967 3.14785 9.00233 3.77185 9.375C4.40452 9.74767 5.14552 9.934 5.99485 9.934C6.61885 9.934 7.18218 9.83 7.68485 9.622C8.19618 9.414 8.62952 9.12367 8.98485 8.751L9.27085 9.037C8.87218 9.43567 8.39552 9.752 7.84085 9.986C7.29485 10.22 6.67952 10.337 5.99485 10.337ZM5.99485 11.195C5.18018 11.195 4.43918 11.0563 3.77185 10.779C3.11318 10.493 2.54552 10.103 2.06885 9.609C1.59218 9.115 1.22385 8.543 0.963849 7.893C0.703849 7.23433 0.573849 6.528 0.573849 5.774C0.573849 5.02 0.703849 4.318 0.963849 3.668C1.22385 3.00933 1.59218 2.433 2.06885 1.939C2.54552 1.445 3.11318 1.05933 3.77185 0.782C4.43918 0.495999 5.18018 0.352999 5.99485 0.352999C6.79218 0.352999 7.52018 0.491666 8.17885 0.768999C8.83752 1.03767 9.40518 1.41467 9.88185 1.9L9.60885 2.173C9.16685 1.731 8.63818 1.38433 8.02285 1.133C7.41618 0.872999 6.74018 0.743 5.99485 0.743C5.23218 0.743 4.54318 0.872999 3.92785 1.133C3.31252 1.393 2.78385 1.75267 2.34185 2.212C1.89985 2.67133 1.55752 3.20867 1.31485 3.824C1.08085 4.43067 0.963849 5.08067 0.963849 5.774C0.963849 6.46733 1.08085 7.12167 1.31485 7.737C1.55752 8.34367 1.89985 8.87667 2.34185 9.336C2.78385 9.79533 3.31252 10.155 3.92785 10.415C4.54318 10.675 5.23218 10.805 5.99485 10.805C6.74018 10.805 7.41618 10.6793 8.02285 10.428C8.63818 10.168 9.16685 9.817 9.60885 9.375L9.88185 9.648C9.40518 10.1247 8.83752 10.5017 8.17885 10.779C7.52018 11.0563 6.79218 11.195 5.99485 11.195ZM12.6426 11V0.548H13.0326V11H12.6426ZM10.9266 11V0.548H11.3166V11H10.9266ZM11.7846 11V0.548H12.1746V11H11.7846ZM22.987 11V0.548H23.377V11H22.987ZM21.271 11V0.548H21.661V11H21.271ZM22.129 11V0.548H22.519V11H22.129ZM16.045 11V0.548H16.435V11H16.045ZM14.329 11V0.548H14.719V11H14.329ZM15.187 11V0.548H15.577V11H15.187ZM20.803 7.399L16.903 1.796V1.107L20.803 6.71V7.399ZM20.803 8.907L16.903 3.304V2.615L20.803 8.218V8.907ZM20.803 10.415L16.903 4.812V4.123L20.803 9.726V10.415ZM26.3916 11V0.548H26.7816V11H26.3916ZM24.6756 11V0.548H25.0656V11H24.6756ZM25.5336 11V0.548H25.9236V11H25.5336ZM27.2496 0.937999V0.548H32.4366V0.937999H27.2496ZM27.2496 1.796V1.406H32.4366V1.796H27.2496ZM27.2496 2.654V2.264H32.4366V2.654H27.2496ZM27.2496 5.111V4.721H31.6956V5.111H27.2496ZM27.2496 5.969V5.579H31.6956V5.969H27.2496ZM27.2496 6.827V6.437H31.6956V6.827H27.2496ZM27.2496 9.284V8.894H32.4366V9.284H27.2496ZM27.2496 10.142V9.752H32.4366V10.142H27.2496ZM27.2496 11V10.61H32.4366V11H27.2496ZM35.1895 11V0.548H35.5795V11H35.1895ZM33.4735 11V0.548H33.8635V11H33.4735ZM34.3315 11V0.548H34.7215V11H34.3315ZM43.6005 11V0.548H43.9905V11H43.6005ZM41.8845 11V0.548H42.2745V11H41.8845ZM42.7425 11V0.548H43.1325V11H42.7425ZM39.2195 4.968L38.9855 4.617L41.4165 1.094V1.783L39.2195 4.968ZM39.7395 7.217L36.0475 1.939V1.276L39.9865 6.879L39.7395 7.217ZM39.7525 5.722L39.5185 5.371L41.4165 2.667V3.343L39.7525 5.722ZM39.2195 7.984L36.0475 3.46V2.771L39.4535 7.633L39.2195 7.984ZM40.2725 6.463L40.0385 6.125L41.4165 4.162V4.838L40.2725 6.463ZM38.6995 8.725L36.0475 4.955V4.266L38.9335 8.387L38.6995 8.725ZM46.7228 11L50.5058 0.548H50.9218L47.1388 11H46.7228ZM44.9028 11L48.6858 0.548H49.0888L45.3188 11H44.9028ZM45.8128 11L49.5828 0.548H50.0118L46.2288 11H45.8128ZM54.3408 11L50.9478 1.627L51.1558 1.042L54.7568 11H54.3408ZM53.4308 11L50.5058 2.901L50.7008 2.303L53.8468 11H53.4308ZM52.5208 11L50.0508 4.162L50.2588 3.577L52.9368 11H52.5208ZM48.8418 7.542L48.9848 7.152H50.7008L50.8438 7.542H48.8418ZM48.5298 8.413L48.6728 8.023H51.0128L51.1558 8.413H48.5298ZM48.2178 9.271L48.3608 8.881H51.3248L51.4678 9.271H48.2178ZM53.85 0.937999V0.548H61.923V0.937999H53.85ZM53.85 1.796V1.406H61.923V1.796H53.85ZM53.85 2.654V2.264H61.923V2.654H53.85ZM58.556 11V3.07H58.946V11H58.556ZM56.84 11V3.07H57.23V11H56.84ZM57.698 11V3.07H58.088V11H57.698ZM64.4141 11V0.548H64.8041V11H64.4141ZM62.6981 11V0.548H63.0881V11H62.6981ZM63.5561 11V0.548H63.9461V11H63.5561ZM65.2721 0.937999V0.548H70.4591V0.937999H65.2721ZM65.2721 1.796V1.406H70.4591V1.796H65.2721ZM65.2721 2.654V2.264H70.4591V2.654H65.2721ZM65.2721 5.111V4.721H69.7181V5.111H65.2721ZM65.2721 5.969V5.579H69.7181V5.969H65.2721ZM65.2721 6.827V6.437H69.7181V6.827H65.2721ZM65.2721 9.284V8.894H70.4591V9.284H65.2721ZM65.2721 10.142V9.752H70.4591V10.142H65.2721ZM65.2721 11V10.61H70.4591V11H65.2721ZM76.4031 9.479C75.6317 9.479 74.9687 9.31433 74.4141 8.985C73.8594 8.647 73.4347 8.19633 73.1401 7.633C72.8454 7.06967 72.6981 6.45 72.6981 5.774C72.6981 5.08933 72.8454 4.46967 73.1401 3.915C73.4347 3.35167 73.8594 2.90533 74.4141 2.576C74.9687 2.238 75.6317 2.069 76.4031 2.069C76.9664 2.069 77.4734 2.16433 77.9241 2.355C78.3747 2.537 78.7561 2.79267 79.0681 3.122L78.7951 3.395C78.5091 3.109 78.1667 2.88367 77.7681 2.719C77.3694 2.55433 76.9144 2.472 76.4031 2.472C75.7097 2.472 75.1117 2.62367 74.6091 2.927C74.1151 3.22167 73.7381 3.62033 73.4781 4.123C73.2181 4.617 73.0881 5.16733 73.0881 5.774C73.0881 6.38067 73.2181 6.93533 73.4781 7.438C73.7381 7.932 74.1151 8.33067 74.6091 8.634C75.1117 8.92867 75.7097 9.076 76.4031 9.076C76.9144 9.076 77.3694 8.99367 77.7681 8.829C78.1667 8.66433 78.5091 8.439 78.7951 8.153L79.0681 8.426C78.7561 8.74667 78.3747 9.00233 77.9241 9.193C77.4734 9.38367 76.9664 9.479 76.4031 9.479ZM76.4031 10.337C75.7097 10.337 75.0814 10.22 74.5181 9.986C73.9634 9.74333 73.4824 9.414 73.0751 8.998C72.6764 8.582 72.3687 8.101 72.1521 7.555C71.9441 7.00033 71.8401 6.40667 71.8401 5.774C71.8401 5.14133 71.9441 4.552 72.1521 4.006C72.3687 3.45133 72.6764 2.966 73.0751 2.55C73.4824 2.12533 73.9634 1.796 74.5181 1.562C75.0814 1.328 75.7097 1.211 76.4031 1.211C77.0877 1.211 77.7031 1.328 78.2491 1.562C78.8037 1.78733 79.2804 2.10367 79.6791 2.511L79.3931 2.797C79.0377 2.42433 78.6044 2.134 78.0931 1.926C77.5904 1.718 77.0271 1.614 76.4031 1.614C75.5537 1.614 74.8127 1.80033 74.1801 2.173C73.5561 2.54567 73.0751 3.04833 72.7371 3.681C72.3991 4.305 72.2301 5.00267 72.2301 5.774C72.2301 6.53667 72.3991 7.23433 72.7371 7.867C73.0751 8.49967 73.5561 9.00233 74.1801 9.375C74.8127 9.74767 75.5537 9.934 76.4031 9.934C77.0271 9.934 77.5904 9.83 78.0931 9.622C78.6044 9.414 79.0377 9.12367 79.3931 8.751L79.6791 9.037C79.2804 9.43567 78.8037 9.752 78.2491 9.986C77.7031 10.22 77.0877 10.337 76.4031 10.337ZM76.4031 11.195C75.5884 11.195 74.8474 11.0563 74.1801 10.779C73.5214 10.493 72.9537 10.103 72.4771 9.609C72.0004 9.115 71.6321 8.543 71.3721 7.893C71.1121 7.23433 70.9821 6.528 70.9821 5.774C70.9821 5.02 71.1121 4.318 71.3721 3.668C71.6321 3.00933 72.0004 2.433 72.4771 1.939C72.9537 1.445 73.5214 1.05933 74.1801 0.782C74.8474 0.495999 75.5884 0.352999 76.4031 0.352999C77.2004 0.352999 77.9284 0.491666 78.5871 0.768999C79.2457 1.03767 79.8134 1.41467 80.2901 1.9L80.0171 2.173C79.5751 1.731 79.0464 1.38433 78.4311 1.133C77.8244 0.872999 77.1484 0.743 76.4031 0.743C75.6404 0.743 74.9514 0.872999 74.3361 1.133C73.7207 1.393 73.1921 1.75267 72.7501 2.212C72.3081 2.67133 71.9657 3.20867 71.7231 3.824C71.4891 4.43067 71.3721 5.08067 71.3721 5.774C71.3721 6.46733 71.4891 7.12167 71.7231 7.737C71.9657 8.34367 72.3081 8.87667 72.7501 9.336C73.1921 9.79533 73.7207 10.155 74.3361 10.415C74.9514 10.675 75.6404 10.805 76.4031 10.805C77.1484 10.805 77.8244 10.6793 78.4311 10.428C79.0464 10.168 79.5751 9.817 80.0171 9.375L80.2901 9.648C79.8134 10.1247 79.2457 10.5017 78.5871 10.779C77.9284 11.0563 77.2004 11.195 76.4031 11.195ZM82.7648 11L86.5478 0.548H86.9638L83.1808 11H82.7648ZM80.9448 11L84.7278 0.548H85.1308L81.3608 11H80.9448ZM81.8548 11L85.6248 0.548H86.0538L82.2708 11H81.8548ZM90.3828 11L86.9898 1.627L87.1978 1.042L90.7988 11H90.3828ZM89.4728 11L86.5478 2.901L86.7428 2.303L89.8888 11H89.4728ZM88.5628 11L86.0928 4.162L86.3008 3.577L88.9788 11H88.5628ZM84.8838 7.542L85.0268 7.152H86.7428L86.8858 7.542H84.8838ZM84.5718 8.413L84.7148 8.023H87.0548L87.1978 8.413H84.5718ZM84.2598 9.271L84.4028 8.881H87.3668L87.5098 9.271H84.2598Z" fill="#A66B05" fill-opacity="0.76"/>
<path d="M11.2334 24V13.548H11.6234V24H11.2334ZM9.51744 24V13.548H9.90744V24H9.51744ZM10.3754 24V13.548H10.7654V24H10.3754ZM12.0914 19.632V19.242H15.1464C15.6404 19.242 16.0868 19.1337 16.4854 18.917C16.8928 18.7003 17.2134 18.3927 17.4474 17.994C17.6901 17.5953 17.8114 17.1273 17.8114 16.59C17.8114 16.0527 17.6901 15.5847 17.4474 15.186C17.2134 14.7873 16.8928 14.4797 16.4854 14.263C16.0868 14.0463 15.6404 13.938 15.1464 13.938H12.0914V13.548H15.1464C15.7098 13.548 16.2211 13.678 16.6804 13.938C17.1484 14.1893 17.5168 14.5447 17.7854 15.004C18.0628 15.4547 18.2014 15.9833 18.2014 16.59C18.2014 17.1967 18.0628 17.7297 17.7854 18.189C17.5168 18.6397 17.1484 18.995 16.6804 19.255C16.2211 19.5063 15.7098 19.632 15.1464 19.632H12.0914ZM12.0914 18.774V18.384H15.1464C15.6491 18.384 16.0738 18.228 16.4204 17.916C16.7758 17.5953 16.9534 17.1533 16.9534 16.59C16.9534 16.0267 16.7758 15.589 16.4204 15.277C16.0738 14.9563 15.6491 14.796 15.1464 14.796H12.0914V14.406H15.1464C15.5538 14.406 15.9221 14.497 16.2514 14.679C16.5808 14.8523 16.8451 15.1037 17.0444 15.433C17.2438 15.7537 17.3434 16.1393 17.3434 16.59C17.3434 17.0407 17.2438 17.4307 17.0444 17.76C16.8451 18.0807 16.5808 18.332 16.2514 18.514C15.9221 18.6873 15.5538 18.774 15.1464 18.774H12.0914ZM12.0914 17.916V17.526H15.1464C15.4064 17.526 15.6274 17.4523 15.8094 17.305C16.0001 17.149 16.0954 16.9107 16.0954 16.59C16.0954 16.2607 16.0001 16.0223 15.8094 15.875C15.6274 15.7277 15.4064 15.654 15.1464 15.654H12.0914V15.264H15.1464C15.5191 15.264 15.8354 15.3767 16.0954 15.602C16.3554 15.8273 16.4854 16.1567 16.4854 16.59C16.4854 17.0233 16.3554 17.3527 16.0954 17.578C15.8354 17.8033 15.5191 17.916 15.1464 17.916H12.0914ZM12.0524 24V23.61H15.2114C15.8441 23.61 16.3858 23.4887 16.8364 23.246C17.2958 22.9947 17.6468 22.6567 17.8894 22.232C18.1408 21.7987 18.2664 21.309 18.2664 20.763C18.2664 20.425 18.2231 20.1043 18.1364 19.801C18.0584 19.489 17.9328 19.216 17.7594 18.982C17.8114 18.9387 17.8591 18.8953 17.9024 18.852C17.9544 18.8 17.9978 18.7437 18.0324 18.683C18.4484 19.229 18.6564 19.9223 18.6564 20.763C18.6564 21.3783 18.5134 21.933 18.2274 22.427C17.9501 22.9123 17.5514 23.298 17.0314 23.584C16.5201 23.8613 15.9134 24 15.2114 24H12.0524ZM12.0524 23.142V22.752H15.2114C15.9308 22.752 16.4768 22.5657 16.8494 22.193C17.2221 21.8203 17.4084 21.3437 17.4084 20.763C17.4084 20.5377 17.3824 20.321 17.3304 20.113C17.2784 19.8963 17.2048 19.7057 17.1094 19.541C17.1788 19.5063 17.2394 19.4673 17.2914 19.424C17.3434 19.3807 17.3868 19.3417 17.4214 19.307C17.5428 19.4977 17.6338 19.7187 17.6944 19.97C17.7638 20.2213 17.7984 20.4857 17.7984 20.763C17.7984 21.4477 17.5731 22.0153 17.1224 22.466C16.6718 22.9167 16.0348 23.142 15.2114 23.142H12.0524ZM12.0524 22.284V21.894H15.2114C15.6881 21.894 16.0304 21.79 16.2384 21.582C16.4464 21.374 16.5504 21.101 16.5504 20.763C16.5504 20.4423 16.4681 20.165 16.3034 19.931C16.3641 19.9137 16.4248 19.892 16.4854 19.866C16.5461 19.8313 16.6068 19.7967 16.6674 19.762C16.8494 20.0567 16.9404 20.3903 16.9404 20.763C16.9404 21.2137 16.7974 21.582 16.5114 21.868C16.2341 22.1453 15.8008 22.284 15.2114 22.284H12.0524ZM29.9038 18.774C29.9038 18.0807 29.7824 17.4307 29.5398 16.824C29.3058 16.2087 28.9678 15.6713 28.5258 15.212C28.0838 14.7527 27.5551 14.393 26.9398 14.133C26.3244 13.873 25.6354 13.743 24.8728 13.743C24.1101 13.743 23.4211 13.873 22.8058 14.133C22.1904 14.393 21.6618 14.7527 21.2198 15.212C20.7778 15.6713 20.4354 16.2087 20.1928 16.824C19.9588 17.4307 19.8418 18.0807 19.8418 18.774C19.8418 19.4673 19.9588 20.1217 20.1928 20.737C20.4354 21.3437 20.7778 21.8767 21.2198 22.336C21.6618 22.7953 22.1904 23.155 22.8058 23.415C23.4211 23.675 24.1101 23.805 24.8728 23.805C25.6354 23.805 26.3244 23.675 26.9398 23.415C27.5551 23.155 28.0838 22.7953 28.5258 22.336C28.9678 21.8767 29.3058 21.3437 29.5398 20.737C29.7824 20.1217 29.9038 19.4673 29.9038 18.774ZM29.0458 18.774C29.0458 18.0027 28.8768 17.305 28.5388 16.681C28.2008 16.0483 27.7198 15.5457 27.0958 15.173C26.4718 14.8003 25.7308 14.614 24.8728 14.614C24.0234 14.614 23.2824 14.8003 22.6498 15.173C22.0258 15.5457 21.5448 16.0483 21.2068 16.681C20.8688 17.305 20.6998 18.0027 20.6998 18.774C20.6998 19.5367 20.8688 20.2343 21.2068 20.867C21.5448 21.4997 22.0258 22.0023 22.6498 22.375C23.2824 22.7477 24.0234 22.934 24.8728 22.934C25.7308 22.934 26.4718 22.7477 27.0958 22.375C27.7198 22.0023 28.2008 21.4997 28.5388 20.867C28.8768 20.2343 29.0458 19.5367 29.0458 18.774ZM28.1878 18.774C28.1878 18.1673 28.0578 17.617 27.7978 17.123C27.5378 16.6203 27.1608 16.2217 26.6668 15.927C26.1728 15.6237 25.5748 15.472 24.8728 15.472C24.1794 15.472 23.5814 15.6237 23.0788 15.927C22.5848 16.2217 22.2078 16.6203 21.9478 17.123C21.6878 17.617 21.5578 18.1673 21.5578 18.774C21.5578 19.3807 21.6878 19.9353 21.9478 20.438C22.2078 20.932 22.5848 21.3307 23.0788 21.634C23.5814 21.9287 24.1794 22.076 24.8728 22.076C25.5748 22.076 26.1728 21.9287 26.6668 21.634C27.1608 21.3307 27.5378 20.932 27.7978 20.438C28.0578 19.9353 28.1878 19.3807 28.1878 18.774ZM24.8728 22.479C24.1014 22.479 23.4384 22.3143 22.8838 21.985C22.3291 21.647 21.9044 21.1963 21.6098 20.633C21.3151 20.0697 21.1678 19.45 21.1678 18.774C21.1678 18.0893 21.3151 17.4697 21.6098 16.915C21.9044 16.3517 22.3291 15.9053 22.8838 15.576C23.4384 15.238 24.1014 15.069 24.8728 15.069C25.6441 15.069 26.3071 15.238 26.8618 15.576C27.4164 15.9053 27.8411 16.3517 28.1358 16.915C28.4304 17.4697 28.5778 18.0893 28.5778 18.774C28.5778 19.45 28.4304 20.0697 28.1358 20.633C27.8411 21.1963 27.4164 21.647 26.8618 21.985C26.3071 22.3143 25.6441 22.479 24.8728 22.479ZM24.8728 23.337C24.1794 23.337 23.5511 23.22 22.9878 22.986C22.4331 22.7433 21.9521 22.414 21.5448 21.998C21.1461 21.582 20.8384 21.101 20.6218 20.555C20.4138 20.0003 20.3098 19.4067 20.3098 18.774C20.3098 18.1413 20.4138 17.552 20.6218 17.006C20.8384 16.4513 21.1461 15.966 21.5448 15.55C21.9521 15.1253 22.4331 14.796 22.9878 14.562C23.5511 14.328 24.1794 14.211 24.8728 14.211C25.5661 14.211 26.1901 14.328 26.7448 14.562C27.3081 14.796 27.7891 15.1253 28.1878 15.55C28.5951 15.966 28.9028 16.4513 29.1108 17.006C29.3274 17.552 29.4358 18.1413 29.4358 18.774C29.4358 19.4067 29.3274 20.0003 29.1108 20.555C28.9028 21.101 28.5951 21.582 28.1878 21.998C27.7891 22.414 27.3081 22.7433 26.7448 22.986C26.1901 23.22 25.5661 23.337 24.8728 23.337ZM24.8728 24.195C24.0581 24.195 23.3171 24.0563 22.6498 23.779C21.9911 23.493 21.4234 23.103 20.9468 22.609C20.4701 22.115 20.1018 21.543 19.8418 20.893C19.5818 20.2343 19.4518 19.528 19.4518 18.774C19.4518 18.02 19.5818 17.318 19.8418 16.668C20.1018 16.0093 20.4701 15.433 20.9468 14.939C21.4234 14.445 21.9911 14.0593 22.6498 13.782C23.3171 13.496 24.0581 13.353 24.8728 13.353C25.6874 13.353 26.4241 13.496 27.0828 13.782C27.7501 14.0593 28.3221 14.445 28.7988 14.939C29.2754 15.433 29.6438 16.0093 29.9038 16.668C30.1638 17.318 30.2938 18.02 30.2938 18.774C30.2938 19.528 30.1638 20.2343 29.9038 20.893C29.6438 21.543 29.2754 22.115 28.7988 22.609C28.3221 23.103 27.7501 23.493 27.0828 23.779C26.4241 24.0563 25.6874 24.195 24.8728 24.195ZM33.044 24V13.548H33.434V24H33.044ZM31.328 24V13.548H31.718V24H31.328ZM32.186 24V13.548H32.576V24H32.186ZM33.902 22.284V21.894H38.348V22.284H33.902ZM33.902 23.142V22.752H38.348V23.142H33.902ZM33.902 24V23.61H38.348V24H33.902Z" fill="white"/>
<path d="M11.2334 24V13.548H11.6234V24H11.2334ZM9.51744 24V13.548H9.90744V24H9.51744ZM10.3754 24V13.548H10.7654V24H10.3754ZM12.0914 19.632V19.242H15.1464C15.6404 19.242 16.0868 19.1337 16.4854 18.917C16.8928 18.7003 17.2134 18.3927 17.4474 17.994C17.6901 17.5953 17.8114 17.1273 17.8114 16.59C17.8114 16.0527 17.6901 15.5847 17.4474 15.186C17.2134 14.7873 16.8928 14.4797 16.4854 14.263C16.0868 14.0463 15.6404 13.938 15.1464 13.938H12.0914V13.548H15.1464C15.7098 13.548 16.2211 13.678 16.6804 13.938C17.1484 14.1893 17.5168 14.5447 17.7854 15.004C18.0628 15.4547 18.2014 15.9833 18.2014 16.59C18.2014 17.1967 18.0628 17.7297 17.7854 18.189C17.5168 18.6397 17.1484 18.995 16.6804 19.255C16.2211 19.5063 15.7098 19.632 15.1464 19.632H12.0914ZM12.0914 18.774V18.384H15.1464C15.6491 18.384 16.0738 18.228 16.4204 17.916C16.7758 17.5953 16.9534 17.1533 16.9534 16.59C16.9534 16.0267 16.7758 15.589 16.4204 15.277C16.0738 14.9563 15.6491 14.796 15.1464 14.796H12.0914V14.406H15.1464C15.5538 14.406 15.9221 14.497 16.2514 14.679C16.5808 14.8523 16.8451 15.1037 17.0444 15.433C17.2438 15.7537 17.3434 16.1393 17.3434 16.59C17.3434 17.0407 17.2438 17.4307 17.0444 17.76C16.8451 18.0807 16.5808 18.332 16.2514 18.514C15.9221 18.6873 15.5538 18.774 15.1464 18.774H12.0914ZM12.0914 17.916V17.526H15.1464C15.4064 17.526 15.6274 17.4523 15.8094 17.305C16.0001 17.149 16.0954 16.9107 16.0954 16.59C16.0954 16.2607 16.0001 16.0223 15.8094 15.875C15.6274 15.7277 15.4064 15.654 15.1464 15.654H12.0914V15.264H15.1464C15.5191 15.264 15.8354 15.3767 16.0954 15.602C16.3554 15.8273 16.4854 16.1567 16.4854 16.59C16.4854 17.0233 16.3554 17.3527 16.0954 17.578C15.8354 17.8033 15.5191 17.916 15.1464 17.916H12.0914ZM12.0524 24V23.61H15.2114C15.8441 23.61 16.3858 23.4887 16.8364 23.246C17.2958 22.9947 17.6468 22.6567 17.8894 22.232C18.1408 21.7987 18.2664 21.309 18.2664 20.763C18.2664 20.425 18.2231 20.1043 18.1364 19.801C18.0584 19.489 17.9328 19.216 17.7594 18.982C17.8114 18.9387 17.8591 18.8953 17.9024 18.852C17.9544 18.8 17.9978 18.7437 18.0324 18.683C18.4484 19.229 18.6564 19.9223 18.6564 20.763C18.6564 21.3783 18.5134 21.933 18.2274 22.427C17.9501 22.9123 17.5514 23.298 17.0314 23.584C16.5201 23.8613 15.9134 24 15.2114 24H12.0524ZM12.0524 23.142V22.752H15.2114C15.9308 22.752 16.4768 22.5657 16.8494 22.193C17.2221 21.8203 17.4084 21.3437 17.4084 20.763C17.4084 20.5377 17.3824 20.321 17.3304 20.113C17.2784 19.8963 17.2048 19.7057 17.1094 19.541C17.1788 19.5063 17.2394 19.4673 17.2914 19.424C17.3434 19.3807 17.3868 19.3417 17.4214 19.307C17.5428 19.4977 17.6338 19.7187 17.6944 19.97C17.7638 20.2213 17.7984 20.4857 17.7984 20.763C17.7984 21.4477 17.5731 22.0153 17.1224 22.466C16.6718 22.9167 16.0348 23.142 15.2114 23.142H12.0524ZM12.0524 22.284V21.894H15.2114C15.6881 21.894 16.0304 21.79 16.2384 21.582C16.4464 21.374 16.5504 21.101 16.5504 20.763C16.5504 20.4423 16.4681 20.165 16.3034 19.931C16.3641 19.9137 16.4248 19.892 16.4854 19.866C16.5461 19.8313 16.6068 19.7967 16.6674 19.762C16.8494 20.0567 16.9404 20.3903 16.9404 20.763C16.9404 21.2137 16.7974 21.582 16.5114 21.868C16.2341 22.1453 15.8008 22.284 15.2114 22.284H12.0524ZM29.9038 18.774C29.9038 18.0807 29.7824 17.4307 29.5398 16.824C29.3058 16.2087 28.9678 15.6713 28.5258 15.212C28.0838 14.7527 27.5551 14.393 26.9398 14.133C26.3244 13.873 25.6354 13.743 24.8728 13.743C24.1101 13.743 23.4211 13.873 22.8058 14.133C22.1904 14.393 21.6618 14.7527 21.2198 15.212C20.7778 15.6713 20.4354 16.2087 20.1928 16.824C19.9588 17.4307 19.8418 18.0807 19.8418 18.774C19.8418 19.4673 19.9588 20.1217 20.1928 20.737C20.4354 21.3437 20.7778 21.8767 21.2198 22.336C21.6618 22.7953 22.1904 23.155 22.8058 23.415C23.4211 23.675 24.1101 23.805 24.8728 23.805C25.6354 23.805 26.3244 23.675 26.9398 23.415C27.5551 23.155 28.0838 22.7953 28.5258 22.336C28.9678 21.8767 29.3058 21.3437 29.5398 20.737C29.7824 20.1217 29.9038 19.4673 29.9038 18.774ZM29.0458 18.774C29.0458 18.0027 28.8768 17.305 28.5388 16.681C28.2008 16.0483 27.7198 15.5457 27.0958 15.173C26.4718 14.8003 25.7308 14.614 24.8728 14.614C24.0234 14.614 23.2824 14.8003 22.6498 15.173C22.0258 15.5457 21.5448 16.0483 21.2068 16.681C20.8688 17.305 20.6998 18.0027 20.6998 18.774C20.6998 19.5367 20.8688 20.2343 21.2068 20.867C21.5448 21.4997 22.0258 22.0023 22.6498 22.375C23.2824 22.7477 24.0234 22.934 24.8728 22.934C25.7308 22.934 26.4718 22.7477 27.0958 22.375C27.7198 22.0023 28.2008 21.4997 28.5388 20.867C28.8768 20.2343 29.0458 19.5367 29.0458 18.774ZM28.1878 18.774C28.1878 18.1673 28.0578 17.617 27.7978 17.123C27.5378 16.6203 27.1608 16.2217 26.6668 15.927C26.1728 15.6237 25.5748 15.472 24.8728 15.472C24.1794 15.472 23.5814 15.6237 23.0788 15.927C22.5848 16.2217 22.2078 16.6203 21.9478 17.123C21.6878 17.617 21.5578 18.1673 21.5578 18.774C21.5578 19.3807 21.6878 19.9353 21.9478 20.438C22.2078 20.932 22.5848 21.3307 23.0788 21.634C23.5814 21.9287 24.1794 22.076 24.8728 22.076C25.5748 22.076 26.1728 21.9287 26.6668 21.634C27.1608 21.3307 27.5378 20.932 27.7978 20.438C28.0578 19.9353 28.1878 19.3807 28.1878 18.774ZM24.8728 22.479C24.1014 22.479 23.4384 22.3143 22.8838 21.985C22.3291 21.647 21.9044 21.1963 21.6098 20.633C21.3151 20.0697 21.1678 19.45 21.1678 18.774C21.1678 18.0893 21.3151 17.4697 21.6098 16.915C21.9044 16.3517 22.3291 15.9053 22.8838 15.576C23.4384 15.238 24.1014 15.069 24.8728 15.069C25.6441 15.069 26.3071 15.238 26.8618 15.576C27.4164 15.9053 27.8411 16.3517 28.1358 16.915C28.4304 17.4697 28.5778 18.0893 28.5778 18.774C28.5778 19.45 28.4304 20.0697 28.1358 20.633C27.8411 21.1963 27.4164 21.647 26.8618 21.985C26.3071 22.3143 25.6441 22.479 24.8728 22.479ZM24.8728 23.337C24.1794 23.337 23.5511 23.22 22.9878 22.986C22.4331 22.7433 21.9521 22.414 21.5448 21.998C21.1461 21.582 20.8384 21.101 20.6218 20.555C20.4138 20.0003 20.3098 19.4067 20.3098 18.774C20.3098 18.1413 20.4138 17.552 20.6218 17.006C20.8384 16.4513 21.1461 15.966 21.5448 15.55C21.9521 15.1253 22.4331 14.796 22.9878 14.562C23.5511 14.328 24.1794 14.211 24.8728 14.211C25.5661 14.211 26.1901 14.328 26.7448 14.562C27.3081 14.796 27.7891 15.1253 28.1878 15.55C28.5951 15.966 28.9028 16.4513 29.1108 17.006C29.3274 17.552 29.4358 18.1413 29.4358 18.774C29.4358 19.4067 29.3274 20.0003 29.1108 20.555C28.9028 21.101 28.5951 21.582 28.1878 21.998C27.7891 22.414 27.3081 22.7433 26.7448 22.986C26.1901 23.22 25.5661 23.337 24.8728 23.337ZM24.8728 24.195C24.0581 24.195 23.3171 24.0563 22.6498 23.779C21.9911 23.493 21.4234 23.103 20.9468 22.609C20.4701 22.115 20.1018 21.543 19.8418 20.893C19.5818 20.2343 19.4518 19.528 19.4518 18.774C19.4518 18.02 19.5818 17.318 19.8418 16.668C20.1018 16.0093 20.4701 15.433 20.9468 14.939C21.4234 14.445 21.9911 14.0593 22.6498 13.782C23.3171 13.496 24.0581 13.353 24.8728 13.353C25.6874 13.353 26.4241 13.496 27.0828 13.782C27.7501 14.0593 28.3221 14.445 28.7988 14.939C29.2754 15.433 29.6438 16.0093 29.9038 16.668C30.1638 17.318 30.2938 18.02 30.2938 18.774C30.2938 19.528 30.1638 20.2343 29.9038 20.893C29.6438 21.543 29.2754 22.115 28.7988 22.609C28.3221 23.103 27.7501 23.493 27.0828 23.779C26.4241 24.0563 25.6874 24.195 24.8728 24.195ZM33.044 24V13.548H33.434V24H33.044ZM31.328 24V13.548H31.718V24H31.328ZM32.186 24V13.548H32.576V24H32.186ZM33.902 22.284V21.894H38.348V22.284H33.902ZM33.902 23.142V22.752H38.348V23.142H33.902ZM33.902 24V23.61H38.348V24H33.902Z" fill="#FF0606" fill-opacity="0.6"/>
<path d="M40.8897 24V13.548H41.2797V24H40.8897ZM39.1737 24V13.548H39.5637V24H39.1737ZM40.0317 24V13.548H40.4217V24H40.0317ZM47.4021 24L43.8791 13.548H44.2951L47.8181 24H47.4021ZM45.5821 24L42.0591 13.548H42.4751L45.9981 24H45.5821ZM46.4921 24L42.9691 13.548H43.3851L46.9081 24H46.4921ZM47.6491 22.037L47.4411 21.4L50.0671 13.548H50.4831L47.6491 22.037ZM47.1941 20.672L46.9861 20.061L49.1571 13.548H49.5731L47.1941 20.672ZM48.1041 23.363L47.8961 22.765L50.9771 13.548H51.3931L48.1041 23.363ZM53.8897 24V13.548H54.2797V24H53.8897ZM52.1737 24V13.548H52.5637V24H52.1737ZM53.0317 24V13.548H53.4217V24H53.0317Z" fill="white"/>
<path d="M40.8897 24V13.548H41.2797V24H40.8897ZM39.1737 24V13.548H39.5637V24H39.1737ZM40.0317 24V13.548H40.4217V24H40.0317ZM47.4021 24L43.8791 13.548H44.2951L47.8181 24H47.4021ZM45.5821 24L42.0591 13.548H42.4751L45.9981 24H45.5821ZM46.4921 24L42.9691 13.548H43.3851L46.9081 24H46.4921ZM47.6491 22.037L47.4411 21.4L50.0671 13.548H50.4831L47.6491 22.037ZM47.1941 20.672L46.9861 20.061L49.1571 13.548H49.5731L47.1941 20.672ZM48.1041 23.363L47.8961 22.765L50.9771 13.548H51.3931L48.1041 23.363ZM53.8897 24V13.548H54.2797V24H53.8897ZM52.1737 24V13.548H52.5637V24H52.1737ZM53.0317 24V13.548H53.4217V24H53.0317Z" fill="#F5FE04" fill-opacity="0.75"/>
<path d="M57.006 24L60.789 13.548H61.205L57.422 24H57.006ZM55.186 24L58.969 13.548H59.372L55.602 24H55.186ZM56.096 24L59.866 13.548H60.295L56.512 24H56.096ZM64.624 24L61.231 14.627L61.439 14.042L65.04 24H64.624ZM63.714 24L60.789 15.901L60.984 15.303L64.13 24H63.714ZM62.804 24L60.334 17.162L60.542 16.577L63.22 24H62.804ZM59.125 20.542L59.268 20.152H60.984L61.127 20.542H59.125ZM58.813 21.413L58.956 21.023H61.296L61.439 21.413H58.813ZM58.501 22.271L58.644 21.881H61.608L61.751 22.271H58.501ZM74.6061 24V13.548H74.9961V24H74.6061ZM72.8901 24V13.548H73.2801V24H72.8901ZM73.7481 24V13.548H74.1381V24H73.7481ZM67.6641 24V13.548H68.0541V24H67.6641ZM65.9481 24V13.548H66.3381V24H65.9481ZM66.8061 24V13.548H67.1961V24H66.8061ZM72.4221 20.399L68.5221 14.796V14.107L72.4221 19.71V20.399ZM72.4221 21.907L68.5221 16.304V15.615L72.4221 21.218V21.907ZM72.4221 23.415L68.5221 17.812V17.123L72.4221 22.726V23.415ZM77.7248 24L81.5078 13.548H81.9238L78.1408 24H77.7248ZM75.9048 24L79.6878 13.548H80.0908L76.3208 24H75.9048ZM76.8148 24L80.5848 13.548H81.0138L77.2308 24H76.8148ZM85.3428 24L81.9498 14.627L82.1578 14.042L85.7588 24H85.3428ZM84.4328 24L81.5078 15.901L81.7028 15.303L84.8488 24H84.4328ZM83.5228 24L81.0528 17.162L81.2608 16.577L83.9388 24H83.5228ZM79.8438 20.542L79.9868 20.152H81.7028L81.8458 20.542H79.8438ZM79.5318 21.413L79.6748 21.023H82.0148L82.1578 21.413H79.5318ZM79.2198 22.271L79.3628 21.881H82.3268L82.4698 22.271H79.2198Z" fill="white"/>
<path d="M57.006 24L60.789 13.548H61.205L57.422 24H57.006ZM55.186 24L58.969 13.548H59.372L55.602 24H55.186ZM56.096 24L59.866 13.548H60.295L56.512 24H56.096ZM64.624 24L61.231 14.627L61.439 14.042L65.04 24H64.624ZM63.714 24L60.789 15.901L60.984 15.303L64.13 24H63.714ZM62.804 24L60.334 17.162L60.542 16.577L63.22 24H62.804ZM59.125 20.542L59.268 20.152H60.984L61.127 20.542H59.125ZM58.813 21.413L58.956 21.023H61.296L61.439 21.413H58.813ZM58.501 22.271L58.644 21.881H61.608L61.751 22.271H58.501ZM74.6061 24V13.548H74.9961V24H74.6061ZM72.8901 24V13.548H73.2801V24H72.8901ZM73.7481 24V13.548H74.1381V24H73.7481ZM67.6641 24V13.548H68.0541V24H67.6641ZM65.9481 24V13.548H66.3381V24H65.9481ZM66.8061 24V13.548H67.1961V24H66.8061ZM72.4221 20.399L68.5221 14.796V14.107L72.4221 19.71V20.399ZM72.4221 21.907L68.5221 16.304V15.615L72.4221 21.218V21.907ZM72.4221 23.415L68.5221 17.812V17.123L72.4221 22.726V23.415ZM77.7248 24L81.5078 13.548H81.9238L78.1408 24H77.7248ZM75.9048 24L79.6878 13.548H80.0908L76.3208 24H75.9048ZM76.8148 24L80.5848 13.548H81.0138L77.2308 24H76.8148ZM85.3428 24L81.9498 14.627L82.1578 14.042L85.7588 24H85.3428ZM84.4328 24L81.5078 15.901L81.7028 15.303L84.8488 24H84.4328ZM83.5228 24L81.0528 17.162L81.2608 16.577L83.9388 24H83.5228ZM79.8438 20.542L79.9868 20.152H81.7028L81.8458 20.542H79.8438ZM79.5318 21.413L79.6748 21.023H82.0148L82.1578 21.413H79.5318ZM79.2198 22.271L79.3628 21.881H82.3268L82.4698 22.271H79.2198Z" fill="#0CFF18" fill-opacity="0.55"/>
</svg>
